<?xml version="1.0" standalone="no"?>
<!DOCTYPE svg PUBLIC "-//W3C//DTD SVG 1.1//EN" "http://www.w3.org/Graphics/SVG/1.1/DTD/svg11.dtd" >
<!--
2013-9-30: Created.
-->
<svg>
<metadata>
Created by iconfont
</metadata>
<defs>

<font id="iconfont" horiz-adv-x="1024" >
  <font-face
    font-family="iconfont"
    font-weight="500"
    font-stretch="normal"
    units-per-em="1024"
    ascent="896"
    descent="-128"
  />
    <missing-glyph />
    
    <glyph glyph-name="less" unicode="&#59045;" d="M509.927514 508.840919C517.168621 516.831106 527.507586 516.737553 534.709532 508.506756L805.278364 199.285235C813.036915 190.418321 826.514517 189.519814 835.381431 197.278364 844.248346 205.036915 845.146852 218.514517 837.388303 227.381431L566.819471 536.602955C542.819471 564.031526 502.692194 564.39462 478.31207 537.492414L197.525612 227.659081C189.61372 218.928717 190.277222 205.437504 199.007586 197.525611 207.737949 189.613719 221.229163 190.277222 229.141056 199.007586L509.927514 508.840919Z"  horiz-adv-x="1024" />

    
    <glyph glyph-name="head" unicode="&#59031;" d="M512.04096 896q69.67296 0 128.49152-34.32448t93.16352-93.16352 34.32448-128.49152l0-128q0-53.32992-20.66432-101.00736t-57.67168-83.00544q97.34144-15.33952 172.99456-45.1584t118.49728-70.49216 42.82368-85.66784l0-84.00896q0-53.00224-37.49888-90.50112t-90.50112-37.49888l-768 0q-53.00224 0-90.50112 37.49888t-37.49888 90.50112l0 84.33664q0 44.99456 42.82368 85.66784t118.33344 70.49216 172.83072 44.83072q-36.6592 35.67616-57.32352 83.16928t-20.66432 100.82304l0 128q0 69.67296 34.32448 128.49152t93.16352 93.16352 128.49152 34.32448zM512.04096 256q-92.672 0-178.83136-14.82752t-150.15936-41.49248q-25.66144-10.67008-45.83424-22.67136t-30.65856-21.66784-15.83104-16.83456-5.3248-11.50976l0-84.33664q0-17.67424 12.4928-30.16704t30.16704-12.4928l768 0q17.67424 0 30.16704 12.4928t12.4928 30.16704l0 84.00896q0 4.34176-5.3248 11.50976t-15.83104 16.83456-30.65856 21.66784-45.83424 22.99904q-64 26.66496-150.15936 41.49248t-178.83136 14.82752zM512.04096 810.65984q-70.67648 0-120.66816-49.99168t-49.99168-120.66816l0-128q0-70.67648 49.99168-120.66816t120.66816-49.99168 120.66816 49.99168 49.99168 120.66816l0 128q0 70.67648-49.99168 120.66816t-120.66816 49.99168z"  horiz-adv-x="1025" />

    
    <glyph glyph-name="language" unicode="&#59269;" d="M511.786667 810.666667c-235.733333 0-426.453333-190.933333-426.453333-426.666667s190.72-426.666667 426.453333-426.666667c235.733333 0 426.88 190.933333 426.88 426.666667s-191.146667 426.666667-426.88 426.666667zM807.253333 554.666667l-125.866667 0c-13.866667 53.333333-33.28 104.533333-58.88 151.893333 78.506667-26.88 143.786667-81.28 184.746667-151.893333zM512 723.84c35.626667-51.2 63.36-108.16 81.493333-169.173333l-162.986667 0c18.133333 61.013333 45.866667 117.973333 81.493333 169.173333zM181.76 298.66666699999996c-7.04 27.306667-11.093333 55.893333-11.093333 85.333333s4.053333 58.026667 11.093333 85.333333l144 0c-3.413333-27.946667-5.76-56.32-5.76-85.333333s2.346667-57.386667 5.973333-85.333333l-144.213333 0zM216.533333 213.33333300000004l125.866667 0c13.866667-53.333333 33.28-104.533333 58.88-152.106667-78.506667 26.88-143.786667 81.493333-184.746667 152.106667zM342.4 554.666667l-125.866667 0c40.96 70.613333 106.24 125.226667 184.746667 152.106667-25.6-47.573333-45.013333-98.773333-58.88-152.106667zM512 44.15999999999997c-35.413333 51.2-63.146667 108.16-81.493333 169.173333l162.986667 0c-18.346667-61.013333-46.08-117.973333-81.493333-169.173333zM611.84 298.66666699999996l-199.68 0c-4.053333 27.946667-6.826667 56.32-6.826667 85.333333s2.773333 57.386667 6.826667 85.333333l199.68 0c4.053333-27.946667 6.826667-56.32 6.826667-85.333333s-2.773333-57.386667-6.826667-85.333333zM622.72 61.440000000000055c25.6 47.573333 45.013333 98.56 58.88 151.893333l125.866667 0c-41.173333-70.613333-106.453333-125.013333-184.746667-151.893333zM698.026667 298.66666699999996c3.413333 27.946667 5.973333 56.32 5.973333 85.333333s-2.346667 57.386667-5.973333 85.333333l144 0c7.04-27.306667 11.306667-55.893333 11.306667-85.333333s-4.053333-58.026667-11.306667-85.333333l-144 0z"  horiz-adv-x="1024" />

    
    <glyph glyph-name="about" unicode="&#58952;" d="M511.997953 831.233927c-246.306732 0-446.00596-199.699228-446.00596-446.00596 0-246.303662 199.699228-446.00289 446.00596-446.00289 246.309802 0 446.00903 199.699228 446.00903 446.00289C958.006983 631.534699 758.307755 831.233927 511.997953 831.233927zM511.997953-5.032364c-215.164454 0-390.255215 175.095877-390.255215 390.260331 0 215.158315 175.09076 390.250098 390.255215 390.250098 215.167524 0 390.255215-175.09076 390.255215-390.250098C902.253168 170.063513 727.165478-5.032364 511.997953-5.032364zM511.997953 496.724341c-30.763654 0-55.747675-24.990161-55.747675-55.745628L456.250278 162.224987c0-30.765701 24.985044-55.753815 55.747675-55.753815 30.763654 0 55.750745 24.987091 55.750745 55.753815L567.748698 440.978712C567.748698 471.733157 542.761608 496.724341 511.997953 496.724341zM511.997953 663.978622c-30.763654 0-55.747675-24.981974-55.747675-55.753815 0-30.760584 24.985044-55.747675 55.747675-55.747675 30.763654 0 55.750745 24.987091 55.750745 55.747675C567.748698 638.996648 542.761608 663.978622 511.997953 663.978622z"  horiz-adv-x="1024" />

    
    <glyph glyph-name="submit" unicode="&#59007;" d="M569.6-102.39999999999998L172.8-102.39999999999998c-51.2 0-89.6 38.4-89.6 89.6L83.2 787.2c0 51.2 38.4 89.6 89.6 89.6l672 0c51.2 0 89.6-38.4 89.6-89.6L934.4 256c0-12.8-12.8-25.6-25.6-25.6s-25.6 12.8-25.6 25.6L883.2 787.2c0 19.2-19.2 38.4-38.4 38.4L172.8 825.6c-19.2 0-38.4-19.2-38.4-38.4l0-806.4c0-19.2 19.2-38.4 38.4-38.4l390.4 0c12.8 0 25.6-12.8 25.6-25.6S582.4-102.39999999999998 569.6-102.39999999999998zM588.8 153.60000000000002l-320 0c-12.8 0-25.6 12.8-25.6 25.6l0 0c0 12.8 12.8 25.6 25.6 25.6l320 0c12.8 0 25.6-12.8 25.6-25.6l0 0C608 166.39999999999998 601.6 153.60000000000002 588.8 153.60000000000002zM748.8 384L262.4 384C249.6 384 236.8 396.8 236.8 409.6l0 0c0 12.8 12.8 25.6 25.6 25.6l486.4 0c12.8 0 25.6-12.8 25.6-25.6l0 0C774.4 396.8 761.6 384 748.8 384zM755.2 601.6L268.8 601.6C256 601.6 243.2 614.4 243.2 627.2l0 0C243.2 640 256 652.8 268.8 652.8l486.4 0c12.8 0 25.6-12.8 25.6-25.6l0 0C780.8 614.4 768 601.6 755.2 601.6zM928 134.39999999999998c-12.8 12.8-32 12.8-38.4 0l-160-172.8-64 64c-12.8 12.8-32 12.8-38.4 0s-12.8-32 0-38.4l89.6-83.2c12.8-12.8 32-12.8 38.4 0l179.2 198.4C934.4 108.79999999999995 934.4 128 928 134.39999999999998z"  horiz-adv-x="1024" />

    
    <glyph glyph-name="headset" unicode="&#59622;" d="M256 85.333333 170.666667 85.333333c-93.866667 0-170.666667 76.8-170.666667 170.666667l0 42.666667c0 93.866667 76.8 170.666667 170.666667 170.666667l85.333333 0c25.6 0 42.666667-17.066667 42.666667-42.666667l0-298.666667C298.666667 102.4 281.6 85.333333 256 85.333333zM170.666667 384c-46.933333 0-85.333333-38.4-85.333333-85.333333l0-42.666667c0-46.933333 38.4-85.333333 85.333333-85.333333l42.666667 0 0 213.333333L170.666667 384zM853.333333 85.333333l-85.333333 0c-25.6 0-42.666667 17.066667-42.666667 42.666667l0 298.666667c0 25.6 17.066667 42.666667 42.666667 42.666667l85.333333 0c93.866667 0 170.666667-76.8 170.666667-170.666667l0-42.666667C1024 162.133333 947.2 85.333333 853.333333 85.333333zM810.666667 170.666667l42.666667 0c46.933333 0 85.333333 38.4 85.333333 85.333333l0 42.666667c0 46.933333-38.4 85.333333-85.333333 85.333333l-42.666667 0L810.666667 170.666667zM891.733333 379.733333c-4.266667 0-4.266667 0-8.533333 0-21.333333 4.266667-38.4 25.6-34.133333 46.933333 0 12.8 4.266667 25.6 4.266667 42.666667 0 187.733333-153.6 341.333333-341.333333 341.333333s-341.333333-153.6-341.333333-341.333333c0-17.066667 0-29.866667 4.266667-42.666667 4.266667-21.333333-12.8-46.933333-34.133333-46.933333-21.333333-4.266667-46.933333 12.8-46.933333 34.133333C85.333333 430.933333 85.333333 448 85.333333 469.333333 85.333333 704 277.333333 896 512 896s426.666667-192 426.666667-426.666667c0-21.333333 0-38.4-4.266667-55.466667C930.133333 392.533333 913.066667 379.733333 891.733333 379.733333zM512-128c-93.866667 0-128 76.8-128 128s34.133333 128 128 128 128-76.8 128-128c0-8.533333 0-17.066667-4.266667-25.6 93.866667 25.6 157.866667 85.333333 192 170.666667 8.533333 21.333333 34.133333 34.133333 55.466667 25.6 21.333333-8.533333 34.133333-34.133333 25.6-55.466667C866.133333 4.266667 759.466667-128 512-128zM512 42.666667c-34.133333 0-42.666667-25.6-42.666667-42.666667 0-17.066667 8.533333-42.666667 42.666667-42.666667s42.666667 25.6 42.666667 42.666667C554.666667 17.066667 546.133333 42.666667 512 42.666667z"  horiz-adv-x="1024" />

    
    <glyph glyph-name="game" unicode="&#58917;" d="M1343.256 452.338c-57.981 263.472-217.429 451.91-365.792 443.384h-5.969c-0.108 0-0.236 0-0.363 0-61.591 0-117.904-22.596-161.102-59.951-31.062-34.859-76.486-56.865-127.049-56.865-0.189 0-0.378 0-0.567 0.001-48.789 0.179-92.746 20.843-123.721 53.839-43.321 39.017-101.115 62.963-164.502 62.976l-6.768-0c-148.363 8.527-307.811-179.912-365.792-443.384-62.244-279.673 14.495-538.029 170.532-575.546 114.257-28.138 239.598 70.771 323.159 234.482h337.654c85.266-164.564 208.902-262.62 323.159-234.482 152.626 38.37 228.513 295.873 167.122 575.546zM551.134 436.99h-124.489v-130.457h-100.614v130.457h-124.489v104.877h124.489v130.457h100.614v-130.457h123.636zM908.399 424.2c-1.019-0.056-2.211-0.089-3.411-0.089-36.26 0-65.655 29.395-65.655 65.655 0 36.26 29.395 65.655 65.655 65.655 36.229 0 65.604-29.344 65.655-65.561 0.015-0.519 0.023-1.125 0.023-1.732 0-34.727-27.68-62.989-62.181-63.926zM1106.216 424.2c-1.019-0.056-2.211-0.089-3.411-0.089-36.26 0-65.655 29.395-65.655 65.655 0 36.26 29.395 65.655 65.655 65.655 36.229 0 65.604-29.344 65.655-65.561 0.017-0.555 0.027-1.202 0.027-1.851 0-33.828-26.265-61.521-59.515-63.798z"  horiz-adv-x="1365" />

    
    <glyph glyph-name="icon-test" unicode="&#58984;" d="M512.002 896c-282.62 0-511.765-229.145-511.765-511.765 0-174.074 86.948-327.833 219.761-420.282 25.884 90.134 91.287 158.032 180.288 189.034 3.707 1.295 7.455 2.52 11.245 3.682 0.6 0.183 1.191 0.383 1.795 0.562 24.017 7.488 51.762 12.336 80.463 13.467-52.472-6.404-51.53-6.229-50.597-6.041 18.148 3.817 39.182 6.219 60.7 6.651-31.277-1.633-14.185-0.151 3.212 0.066-37.507-2.486-36.262-2.315-35.004-2.173 11.611 1.427 25.135 2.283 38.843 2.362l27.031-1.004c4.756-0.354 9.454-0.82 14.123-1.349 1.32-0.154 2.628-0.333 3.94-0.5 19.621-2.474 37.096-6.142 54.032-11.074-36.224 8.4-32.834 7.776-29.473 7.105 1.149-0.229 2.316-0.441 3.457-0.683 9.008-1.895 17.825-4.131 26.446-6.709 1.066-0.317 2.116-0.662 3.178-0.991 3.224-1 6.426-2.045 9.591-3.14 89.284-30.882 154.904-98.838 180.9-189.146 132.722 92.466 219.603 246.166 219.603 420.173-0.008 282.616-229.149 511.756-511.769 511.756zM512.002 170.679c-130.373 0-236.491 103.561-240.743 232.897-0.146 0.092-0.292 0.167-0.437 0.258-4.994 93.353 43.813 165.066 105.597 206.972 0.358 0.246 0.704 0.5 1.062 0.741 2.357 1.583 4.748 3.082 7.138 4.577 0.937 0.587 1.853 1.199 2.799 1.77 38.041 23.106 79.897 35.18 116.717 34.48 2.62 0.087 5.231 0.2 7.871 0.2 2.507 0 4.977-0.112 7.467-0.187 28.237 0.487 59.406-6.534 89.563-20.212 39.976-17.912 73.074-45.002 97.641-78.706 14.311-3.76 50.674-68.518 46.272-149.635l-0.2-0.117c-4.186-129.399-110.328-233.039-240.748-233.039zM376.414 610.806c0.354 0.242 0.704 0.504 1.062 0.741-0.358-0.242-0.704-0.5-1.062-0.741zM519.465 652.387c-2.491 0.075-4.96 0.187-7.467 0.187-2.64 0-5.252-0.112-7.871-0.2 2.524-0.050 5.044-0.104 7.517-0.271 2.836 0.185 6.151 0.291 9.492 0.293zM472.279 509.274c-46.308-81.238-124.763-153.205-201.024-105.697 4.252-129.336 110.37-232.897 240.743-232.897 130.419 0 236.566 103.64 240.748 233.039-63.725-39.661-230.815 17.875-280.467 105.556zM384.615 616.125c0.937 0.583 1.857 1.199 2.799 1.77-0.95-0.575-1.862-1.187-2.799-1.77zM609.028 632.175c41.836-19.317 76.501-47.936 102.429-83.353-71.686 71.27-110.119 90.829-152.561 99.25zM453.975 166.64zM610.498 157.344c1.066-0.317 2.116-0.662 3.178-0.991-1.062 0.329-2.112 0.675-3.178 0.991zM440.381 164.099c0.933 0.196 1.874 0.371 2.807 0.558-0.937-0.187-1.878-0.362-2.807-0.558zM411.527 156.669c0.6 0.183 1.191 0.383 1.795 0.562-0.604-0.179-1.195-0.379-1.795-0.562zM566.165 167.298zM623.263 153.212c0.733-0.254 1.458-0.512 2.182-0.77-6.018-16.77-15.069-31.132-26.591-43.097 33.276-5.41 28.973-120.503 3.214-102.412l-90.075 63.396 2.957 2.078c-0.983-0.025-1.966-0.075-2.957-0.075-1.033 0-2.053 0.054-3.078 0.079l2.961-2.082-90.075-63.396c-25.901-18.125-30.19 97.405-12.877 123.535-8.39 13.67-14.193 29.818-16.297 47.108 6.509-24.989 7.076-24.785 7.651-24.589-89.001-30.998-154.404-98.9-180.288-189.034 82.82-57.653 183.457-91.483 292.003-91.483 108.617 0 209.316 33.876 292.161 91.591-25.984 90.308-91.604 158.269-180.892 189.151zM580.596 164.736c1.149-0.229 2.316-0.441 3.457-0.683-1.141 0.242-2.303 0.458-3.457 0.683zM468.339 168.726c1.254 0.154 2.499 0.329 3.757 0.471-1.258-0.142-2.503-0.312-3.757-0.471zM552.092 169.209c1.32-0.15 2.628-0.333 3.94-0.5-1.312 0.162-2.615 0.342-3.94 0.5zM408.929 130.473c3.44 5.189 7.73 6.872 12.877 3.253l87.114-61.313c1.029-0.025 2.045-0.079 3.078-0.079 0.991 0 1.974 0.050 2.957 0.075l87.118 61.318c5.173 3.652 9.475 1.912 12.919-3.39 8.431 13.702 14.261 29.893 16.372 47.232l-8.096-24.351c-23.801 8.521-51.353 14.318-79.976 16.197 69.322-12.728 68.273-12.382 67.206-12.066-24.037 7.459-51.806 12.292-80.527 13.424 52.94-6.473 51.774-6.261 50.624-6.032-17.897 3.761-38.598 6.084-59.782 6.422 33.91-2.286 32.603-2.103 31.282-1.953-11.922 1.452-25.81 2.323-39.886 2.404l-25.942-1.055c-14.679-1.126-27.925-2.927-40.919-5.436 25.493 3.937 24.247 3.762 22.994 3.608-22.65-2.842-43.025-7.435-62.617-13.77 36.529 9.51 35.588 9.335 34.659 9.139-29.616-6.292-55.799-15.625-80.237-27.917 52.575 20.87 51.983 20.67 51.383 20.487-3.79-1.158-7.538-2.386-11.245-3.682-0.571-0.196-1.141-0.4-1.712-0.604 6.008-16.712 15.026-31.026 26.503-42.958zM602.073 133.725l-90.075-63.396 90.075-63.396c25.759-18.092 30.061 97.001 12.919 123.397-3.44 5.306-7.742 7.047-12.919 3.394zM421.806 133.725c-5.148 3.619-9.437 1.937-12.877-3.253-17.313-26.13-13.023-141.66 12.877-123.535l90.075 63.396-90.075 63.392zM472.279 509.274c49.652-87.681 216.742-145.217 280.467-105.556l0.2 0.117c4.402 81.117-31.964 145.875-82.187 188.963-32.88 28.326-73.4 48.698-118.045 57.657 26.163-4.602-5.006 2.42-33.243 1.932-2.628-0.046-5.248-0.108-7.821-0.283 8.338-29.52-8.267-88.264-39.369-142.83zM472.279 509.274c31.102 54.571 47.711 113.31 39.369 142.83-2.704 0.177-5.866 0.278-9.051 0.279-35.287 0.691-77.143-11.383-115.184-34.489-0.941-0.571-1.862-1.187-2.799-1.77-2.391-1.495-4.781-2.994-7.138-4.577-0.358-0.242-0.704-0.5-1.062-0.741-61.784-41.906-110.591-113.619-105.597-206.972 0.146-0.092 0.292-0.167 0.437-0.258 76.261-47.507 154.716 24.46 201.024 105.697z"  horiz-adv-x="1024" />

    
    <glyph glyph-name="dongtai" unicode="&#58884;" d="M568.533333 503.573333H394.666667a61.333333 61.333333 0 0 1-61.226667-61.226666V251.733333A61.333333 61.333333 0 0 1 394.666667 190.506667a10.666667 10.666667 0 0 0 9.386666-5.546667l35.2-64 49.386667 65.173333a10.666667 10.666667 0 0 0 8.533333 4.266667h71.36A61.333333 61.333333 0 0 1 629.333333 251.733333V442.24a61.333333 61.333333 0 0 1-60.8 61.333333z m-182.293333-81.28h132.586667a18.88 18.88 0 0 0 0-37.866666H386.24a18.88 18.88 0 1 0 0 37.866666z m170.666667-153.173333h-170.666667a18.88 18.88 0 0 0 0 37.866667h170.666667a18.88 18.88 0 0 0 0-37.866667zM512 896a512 512 0 1 1 512-512A512 512 0 0 1 512 896z m138.666667-644.266667a82.666667 82.666667 0 0 0-82.56-82.56h-66.24l-56.106667-74.026666a10.666667 10.666667 0 0 0-8.533333-4.266667h-0.746667a10.666667 10.666667 0 0 0-8.533333 5.44l-40.213334 72.96a82.666667 82.666667 0 0 0-76.16 82.346667V442.24A82.666667 82.666667 0 0 0 394.666667 524.906667h173.866666a82.666667 82.666667 0 0 0 82.133334-82.666667z m76.373333 82.453334a81.92 81.92 0 0 0-33.173333-66.133334 10.666667 10.666667 0 0 0-12.8 17.066667 60.8 60.8 0 0 1 24.64 49.066667V510.4a61.333333 61.333333 0 0 1-61.226667 61.226667h-160a61.226667 61.226667 0 0 1-46.613333-21.333334 10.666667 10.666667 0 0 0-16.213334 13.866667 82.453333 82.453333 0 0 0 62.826667 28.906667h160a82.666667 82.666667 0 0 0 82.56-82.56z"  horiz-adv-x="1024" />

    
    <glyph glyph-name="zizhi" unicode="&#58885;" d="M528.213333 566.506667a140.48 140.48 0 1 1 140.48-140.48 140.693333 140.693333 0 0 1-140.48 140.48z m40.213334-200.853334l-39.786667 20.48-39.36-21.333333 7.146667 44.053333-32 30.933334 44.16 6.826666 19.413333 40.213334 20.16-39.893334 44.266667-6.08-32-31.466666zM512 896a512 512 0 1 1 512-512A512 512 0 0 1 512 896z m-64.853333-666.773333l-76.693334-76.693334a10.666667 10.666667 0 0 0-7.786666-3.2h-2.346667a10.666667 10.666667 0 0 0-7.68 6.826667l-21.333333 59.626667-59.626667 21.333333a10.666667 10.666667 0 0 0-3.946667 17.6l76.693334 76.693333a10.666667 10.666667 0 0 0 15.04-15.04l-64.213334-64.64 48.426667-17.066666a10.666667 10.666667 0 0 0 6.506667-6.506667l17.173333-48.533333 64.746667 64.746666a10.666667 10.666667 0 0 0 15.04-15.04z m-80.853334 196.8a161.813333 161.813333 0 1 0 161.92-161.92 162.026667 162.026667 0 0 0-161.92 161.92zM791.04 245.333333a10.666667 10.666667 0 0 0-6.826667-7.68l-59.626666-21.333333-21.333334-59.626667a10.666667 10.666667 0 0 0-7.68-6.826666L693.333333 149.333333a10.666667 10.666667 0 0 0-7.573333 3.093334l-76.693333 76.693333a10.666667 10.666667 0 0 0 15.04 15.04l64.746666-64.746667 17.173334 48.533334a10.666667 10.666667 0 0 0 6.506666 6.506666l48.533334 17.173334-64.746667 64.746666a10.666667 10.666667 0 0 0 15.04 15.04l76.693333-76.693333a10.666667 10.666667 0 0 0 2.986667-9.386667z"  horiz-adv-x="1024" />

    
    <glyph glyph-name="jieshao" unicode="&#58886;" d="M512 896a512 512 0 1 1 512-512A512 512 0 0 1 512 896z m139.946667-281.493333a87.786667 87.786667 0 1 0-87.786667-87.786667 87.786667 87.786667 0 0 0 87.786667 87.786667zM725.333333 224a81.066667 81.066667 0 0 0-80.96-80.96H397.013333A81.066667 81.066667 0 0 0 316.053333 224V514.773333a81.066667 81.066667 0 0 0 80.96 80.96h116.8a10.666667 10.666667 0 0 0 0-21.333333H397.013333a59.733333 59.733333 0 0 1-59.626666-59.626667V224a59.733333 59.733333 0 0 1 59.626666-59.626667h247.786667A59.733333 59.733333 0 0 1 704 224v87.68a10.666667 10.666667 0 0 0 21.333333 0z m10.666667 136.64H561.813333a4.373333 4.373333 0 0 0-3.946666 6.293333l33.066666 70.4a8.853333 8.853333 0 0 0 12.586667 3.84 90.24 90.24 0 0 1 92.16-2.88 8.746667 8.746667 0 0 0 12.053333-4.053333l32-67.413333a4.373333 4.373333 0 0 0-3.733333-6.186667z"  horiz-adv-x="1024" />

    
    <glyph glyph-name="jiaoliu" unicode="&#58887;" d="M706.666667 399.36c0 83.626667-96.64 151.68-215.466667 151.68s-215.466667-68.053333-215.466667-151.68c0-40.96 23.04-79.466667 64.96-108.373333a10.666667 10.666667 0 0 0 2.986667-14.506667l-39.146667-61.44L437.333333 251.52a10.666667 10.666667 0 0 0 4.586667 0 302.826667 302.826667 0 0 1 49.173333-3.946667c118.933333 0.106667 215.573333 68.16 215.573334 151.786667zM373.333333 366.933333a34.24 34.24 0 1 0 34.24 34.24A34.24 34.24 0 0 0 373.333333 366.933333z m232 68.373334a34.24 34.24 0 1 0-34.24-34.24 34.24 34.24 0 0 0 34.026667 34.24zM456.96 401.066667a34.24 34.24 0 1 0 34.24-34.24 34.24 34.24 0 0 0-34.24 34.24zM512 896a512 512 0 1 1 512-512A512 512 0 0 1 512 896zM283.413333 187.2a10.666667 10.666667 0 0 0-2.773333 0 10.666667 10.666667 0 0 0-9.066667 15.466667L320 279.573333c-42.666667 32-65.813333 74.666667-65.813333 119.893334 0 95.36 106.666667 173.013333 236.8 173.013333s236.8-77.653333 236.8-173.013333-106.666667-173.013333-236.8-173.013334a324.053333 324.053333 0 0 0-50.346667 3.946667z m473.92-2.133333a10.666667 10.666667 0 0 0-12.16-15.146667L650.666667 194.026667a86.506667 86.506667 0 0 1-10.026667-4.693334 211.093333 211.093333 0 0 0-97.706667-24.533333h-17.493333a350.72 350.72 0 0 0-54.186667 4.48 10.666667 10.666667 0 0 0 3.2 21.333333 317.44 317.44 0 0 1 67.52-3.84 189.44 189.44 0 0 1 88.853334 22.186667 62.506667 62.506667 0 0 0 18.133333 7.253333 10.666667 10.666667 0 0 0 4.373333 0l74.666667-18.986666L704 241.6a10.666667 10.666667 0 0 0 1.386667 11.733333c25.066667 29.546667 35.52 41.706667 42.666666 81.6a10.666667 10.666667 0 0 0 21.333334-3.733333c-7.68-42.666667-19.626667-58.88-42.666667-86.186667z"  horiz-adv-x="1024" />

    
    <glyph glyph-name="chaxun" unicode="&#58888;" d="M647.36 435.52a181.333333 181.333333 0 1 1-181.333333-181.333333 181.333333 181.333333 0 0 1 181.333333 181.333333zM512 896a512 512 0 1 1 512-512A512 512 0 0 1 512 896z m264-721.173333l-46.186667-46.186667a21.333333 21.333333 0 0 0-30.186666 0L585.706667 272.32a202.666667 202.666667 0 1 0 46.186666 47.146667l144.106667-114.453334a21.333333 21.333333 0 0 0 0-30.186666z"  horiz-adv-x="1024" />

    
    <glyph glyph-name="shangcheng" unicode="&#58889;" d="M512 896a512 512 0 1 1 512-512A512 512 0 0 1 512 896zM377.6 591.893333h268.8a10.666667 10.666667 0 1 0 0-21.333333H377.6a10.666667 10.666667 0 1 0 0 21.333333z m322.56-387.84a68.8 68.8 0 0 0-68.693333-68.693333H392.533333a68.8 68.8 0 0 0-68.693333 68.693333V362.666667a10.666667 10.666667 0 0 0 21.333333 0v-158.613334a47.36 47.36 0 0 1 47.36-47.36h238.933334a47.466667 47.466667 0 0 1 47.36 47.36V362.666667a10.666667 10.666667 0 0 0 21.333333 0z m-24.106667 192.96a54.72 54.72 0 0 0-54.613333 54.613334 54.72 54.72 0 1 0-109.333333 0 54.72 54.72 0 1 0-109.333334 0 54.72 54.72 0 1 0-106.666666 16.426666 194.453333 194.453333 0 0 0 36.586666 62.506667 17.28 17.28 0 0 0 13.333334 6.186667h338.133333a17.28 17.28 0 0 0 14.613333-8.106667A264.106667 264.106667 0 0 0 727.786667 469.333333a54.613333 54.613333 0 0 0-51.733334-72.106666z"  horiz-adv-x="1024" />

    
    <glyph glyph-name="lianxiwomen" unicode="&#58890;" d="M512 896a512 512 0 1 1 512-512A512 512 0 0 1 512 896z m290.133333-602.773333a79.573333 79.573333 0 0 0-97.493333-56.32h-1.6a123.626667 123.626667 0 0 0-125.226667-59.306667 33.493333 33.493333 0 1 0 0 16.853333A108.373333 108.373333 0 0 1 688.32 245.333333c-12.053333 13.973333 14.293333 37.866667 23.466667 72s-1.813333 68.266667 15.786666 74.666667a202.666667 202.666667 0 0 1 2.346667 29.44A200.853333 200.853333 0 1 1 330.666667 392.426667c24-1.6 10.666667-38.186667 20.373333-74.666667 11.413333-42.666667 49.6-69.12 7.146667-80.426667A79.573333 79.573333 0 0 0 309.333333 388.373333a222.186667 222.186667 0 1 0 439.146667 1.386667 79.466667 79.466667 0 0 0 53.653333-96.533333z"  horiz-adv-x="1024" />

    
    <glyph glyph-name="renwu" unicode="&#58891;" d="M521.813333 436.48h-9.706666a166.613333 166.613333 0 0 1-114.88-46.506667 196.053333 196.053333 0 0 1-59.946667-142.613333c0-6.293333 0-12.586667 0.853333-18.666667a33.066667 33.066667 0 0 1 32-32h284.16a32.533333 32.533333 0 0 1 32 30.613334 208.96 208.96 0 0 1 0 34.666666c-6.613333 94.613333-77.44 169.386667-164.48 174.506667zM512 208.213333l-40.426667 69.866667 30.4 113.173333L490.666667 415.146667l21.333333 17.813333 21.333333-17.813333-11.413333-23.786667 30.4-113.173333zM512 538.773333m-80.64 0a80.64 80.64 0 1 1 161.28 0 80.64 80.64 0 1 1-161.28 0ZM512 896a512 512 0 1 1 512-512A512 512 0 0 1 512 896z m195.093333-670.08a53.333333 53.333333 0 0 0-52.8-49.92H369.706667a54.293333 54.293333 0 0 0-53.333334 51.093333c-0.64 6.72-0.96 13.76-0.96 20.586667A217.493333 217.493333 0 0 0 382.506667 405.333333a191.146667 191.146667 0 0 0 78.293333 44.906667 101.973333 101.973333 0 1 0 102.293333 0c78.613333-22.826667 138.026667-96.746667 144.426667-186.56a231.36 231.36 0 0 0-0.426667-37.76z"  horiz-adv-x="1024" />

    
    <glyph glyph-name="shipin" unicode="&#58892;" d="M512 896a512 512 0 1 1 512-512A512 512 0 0 1 512 896z m227.093333-605.013333a74.666667 74.666667 0 0 0-74.026666-74.026667H375.786667a74.666667 74.666667 0 0 0-74.026667 74.026667V432.426667a10.666667 10.666667 0 0 0 21.333333 0v-141.44a52.693333 52.693333 0 0 1 52.693334-52.693334h289.28a52.693333 52.693333 0 0 1 52.693333 52.693334V432.426667a52.693333 52.693333 0 0 1-52.693333 52.693333H501.333333a10.666667 10.666667 0 0 0-9.6 5.973333l-19.413333 39.786667-106.666667-0.533333a10.666667 10.666667 0 0 0 0 21.333333l113.706667 0.533333a10.666667 10.666667 0 0 0 9.6-5.973333l19.413333-39.786667h156.693334a74.666667 74.666667 0 0 0 74.026666-74.026666z m-274.666666 26.026666V416a12.693333 12.693333 0 0 0 17.493333 11.733333l101.866667-42.026666a12.693333 12.693333 0 0 0 1.493333-23.04l-101.866667-57.066667a12.693333 12.693333 0 0 0-18.986666 11.413333z"  horiz-adv-x="1024" />

    
    <glyph glyph-name="xiangce" unicode="&#58893;" d="M631.893333 281.493333a42.666667 42.666667 0 0 1 42.666667 42.666667V502.933333a42.666667 42.666667 0 0 1-42.666667 42.666667h-309.333333a42.666667 42.666667 0 0 1-42.666667-42.666667v-178.773333a42.666667 42.666667 0 0 1 42.666667-42.666667zM361.493333 523.733333a44.16 44.16 0 1 0-44.053333-43.733333 44.16 44.16 0 0 0 44.053333 43.733333z m-54.506666-206.933333c15.573333 20.053333 44.266667 48.426667 81.6 47.573333 57.386667-1.493333 58.133333-30.186667 91.413333-28.693333s59.52 94.826667 106.666667 94.506667 72.853333-79.466667 72.853333-79.466667a41.92 41.92 0 0 0-12.16-34.88 49.386667 49.386667 0 0 0-41.706667-13.546667H336a75.84 75.84 0 0 0-9.6 1.6 34.773333 34.773333 0 0 0-19.413333 12.906667zM512 896a512 512 0 1 1 512-512A512 512 0 0 1 512 896zM259.093333 324.16V502.933333a64 64 0 0 0 64 64h309.333334a64 64 0 0 0 64-64v-178.773333a64 64 0 0 0-64-64h-309.333334a64 64 0 0 0-64 64z m505.706667-49.493333a73.706667 73.706667 0 0 0-73.6-73.6H316.906667a10.666667 10.666667 0 0 0 0 21.333333h374.4a52.373333 52.373333 0 0 1 52.266666 52.266667v222.933333a10.666667 10.666667 0 0 0 21.333334 0z"  horiz-adv-x="1024" />

    
    <glyph glyph-name="zhuye" unicode="&#58894;" d="M512 896a512 512 0 1 1 512-512A512 512 0 0 1 512 896z m47.253333-705.386667a10.666667 10.666667 0 0 0-10.666666-10.666666H486.4a10.666667 10.666667 0 0 0-10.666667 10.666666v93.76a41.6 41.6 0 1 0 83.306667 0z m119.36-6.08a10.666667 10.666667 0 0 0-21.333333 0V356.266667a41.386667 41.386667 0 0 1-41.386667 41.386666H407.68a41.386667 41.386667 0 0 1-41.386667-41.386666v-171.733334a10.666667 10.666667 0 0 0-21.333333 0V356.266667a62.826667 62.826667 0 0 0 62.72 62.72h208.213333a62.826667 62.826667 0 0 0 62.72-62.72zM743.253333 405.333333a10.666667 10.666667 0 0 0-14.933333-2.133333L515.84 561.386667 295.466667 402.88a10.666667 10.666667 0 0 0-12.48 17.28l226.666666 163.093333a10.666667 10.666667 0 0 0 12.586667 0l218.88-163.2a10.666667 10.666667 0 0 0 2.133333-14.72z"  horiz-adv-x="1024" />

    
    <glyph glyph-name="xinwen" unicode="&#58895;" d="M512 896a512 512 0 1 1 512-512A512 512 0 0 1 512 896z m206.186667-702.186667a64 64 0 0 0-64-64H369.706667a64 64 0 0 0-64 64V517.333333a64 64 0 0 0 64 64h284.48a64 64 0 0 0 64-64zM654.186667 560H369.706667a42.666667 42.666667 0 0 1-42.666667-42.666667v-323.52a42.666667 42.666667 0 0 1 42.666667-42.666666h284.48a42.666667 42.666667 0 0 1 42.666666 42.666666V517.333333a42.666667 42.666667 0 0 1-42.666666 42.666667z m-68.8-64.746667H661.333333a10.666667 10.666667 0 0 0 0-21.333333h-75.946666a10.666667 10.666667 0 0 0 0 21.333333z m0-79.253333H661.333333a10.666667 10.666667 0 0 0 0-21.333333h-75.946666a10.666667 10.666667 0 0 0 0 21.333333z m-226.133334 68.586667a21.333333 21.333333 0 0 0 21.333334 21.333333h133.333333a21.333333 21.333333 0 0 0 21.333333-21.333333v-74.666667a21.333333 21.333333 0 0 0-21.333333-21.333333h-133.333333a21.333333 21.333333 0 0 0-21.333334 21.333333z m303.04-273.28H369.92a10.666667 10.666667 0 0 0 0 21.333333h292.373333a10.666667 10.666667 0 0 0 0-21.333333z m0 79.893333H369.92a10.666667 10.666667 0 0 0 0 21.333333h292.373333a10.666667 10.666667 0 1 0 0-21.333333z"  horiz-adv-x="1024" />

    
    <glyph glyph-name="listen" unicode="&#59169;" d="M822.345143 383.634286a310.857143 310.857143 0 0 1-620.690286 0c15.140571 11.702857 33.938286 18.651429 54.345143 18.651428 50.724571 0 91.428571-42.971429 91.428571-95.451428v-174.811429c0-52.48-40.704-95.451429-91.428571-95.451428s-91.428571 42.971429-91.428571 95.451428V365.714286a347.428571 347.428571 0 0 0 694.857142 0v-233.691429c0-52.48-40.704-95.451429-91.428571-95.451428s-91.428571 42.971429-91.428571 95.451428v174.811429c0 52.48 40.704 95.451429 91.428571 95.451428 20.406857 0 39.204571-6.948571 54.345143-18.651428zM310.857143 306.834286c0 32.731429-24.795429 58.88-54.857143 58.88s-54.857143-26.148571-54.857143-58.88v-174.811429c0-32.731429 24.795429-58.88 54.857143-58.88s54.857143 26.148571 54.857143 58.88v174.811429z m512 0c0 32.731429-24.795429 58.88-54.857143 58.88s-54.857143-26.148571-54.857143-58.88v-174.811429c0-32.731429 24.795429-58.88 54.857143-58.88s54.857143 26.148571 54.857143 58.88v174.811429z"  horiz-adv-x="1024" />

    
    <glyph glyph-name="games" unicode="&#58942;" d="M174.336 128l-119.168-119.168a42.666667 42.666667 0 0 1 60.330667-60.330667L234.666667 67.669333l119.168-119.168a42.666667 42.666667 0 0 1 60.330666 60.330667L294.997333 128l119.168 119.168a42.666667 42.666667 0 0 1-60.330666 60.330667L234.666667 188.330667l-119.168 119.168a42.666667 42.666667 0 0 1-60.330667-60.330667L174.336 128zM768 426.666667c-117.824 0-213.333333 95.509333-213.333333 213.333333S650.176 853.333333 768 853.333333s213.333333-95.509333 213.333333-213.333333-95.509333-213.333333-213.333333-213.333333z m0 85.333333a128 128 0 1 1 0 256 128 128 0 0 1 0-256zM554.666667 234.453333c0 59.093333 47.68 106.88 106.88 106.88h212.906666c59.093333 0 106.88-47.68 106.88-106.88v-212.906666c0-59.093333-47.68-106.88-106.88-106.88h-212.906666A106.730667 106.730667 0 0 0 554.666667 21.546667v212.906666z m85.333333 0v-212.906666c0-12.032 9.536-21.546667 21.546667-21.546667h212.906666c12.032 0 21.546667 9.536 21.546667 21.546667v212.906666c0 12.032-9.536 21.546667-21.546667 21.546667h-212.906666c-12.032 0-21.546667-9.536-21.546667-21.546667zM183.829333 786.112c36.117333 61.162667 108.245333 61.248 144.426667 0l126.208-213.653333c35.733333-60.522667 3.52-124.437333-66.816-124.437334H124.437333c-70.613333 0-102.634667 63.765333-66.816 124.437334L183.829333 786.090667zM133.653333 533.333333H378.453333l-122.410666 207.232L133.653333 533.333333z"  horiz-adv-x="1024" />

    
    <glyph glyph-name="ziyuan" unicode="&#58896;" d="M0 896m204.8 0l614.4 0q204.8 0 204.8-204.8l0-614.4q0-204.8-204.8-204.8l-614.4 0q-204.8 0-204.8 204.8l0 614.4q0 204.8 204.8 204.8ZM754.176 193.28L691.2 256a25.6 25.6 0 0 0-3.328 5.12 115.2 115.2 0 1 0 34.56 34.56 25.6 25.6 0 0 0 5.12-3.328L768 251.904V614.4a51.2 51.2 0 0 1-51.2 51.2H307.2a51.2 51.2 0 0 1-51.2-51.2v-460.8a51.2 51.2 0 0 1 51.2-51.2h409.6a51.2 51.2 0 0 1 51.2 51.2v33.024a25.6 25.6 0 0 0-13.824 6.656zM311.04 573.696a25.6 25.6 0 0 0 25.6 25.6h343.552a25.6 25.6 0 0 0 25.6-25.6 25.6 25.6 0 0 0-25.6-25.6H336.64a25.6 25.6 0 0 0-25.6 25.6z m25.6-70.144h140.032a25.6 25.6 0 0 0 0-51.2h-140.032a25.6 25.6 0 0 0 0 51.2z m0-99.84h108.032a25.6 25.6 0 0 0 0-51.2h-108.032a25.6 25.6 0 0 0 0 51.2z m0-99.84h119.808a25.6 25.6 0 0 0 0-51.2h-119.808a25.6 25.6 0 0 0 0 51.2z m267.008-148.736H336.64a25.6 25.6 0 0 0 0 51.2h267.008a25.6 25.6 0 0 0 0-51.2zM625.408 358.4m-63.488 0a63.488 63.488 0 1 1 126.976 0 63.488 63.488 0 1 1-126.976 0Z"  horiz-adv-x="1024" />

    
    <glyph glyph-name="ziyuan1" unicode="&#58897;" d="M0 896m204.8 0l614.4 0q204.8 0 204.8-204.8l0-614.4q0-204.8-204.8-204.8l-614.4 0q-204.8 0-204.8 204.8l0 614.4q0 204.8 204.8 204.8ZM742.4 647.936h-61.44v-6.144a64.256 64.256 0 0 0-64.256-64.256h-179.2a64.256 64.256 0 0 0-64.256 64.256v6.144h-61.44a64.512 64.512 0 0 1-61.184-67.328v-438.272a70.912 70.912 0 0 1 17.92-47.616 58.368 58.368 0 0 1 43.264-19.712H742.4a64.512 64.512 0 0 1 61.184 67.328V580.608A64.256 64.256 0 0 1 742.4 647.936z m-153.6-404.48h-91.648a33.792 33.792 0 0 0 0 67.328H588.8a33.792 33.792 0 0 1 0 67.328h-122.368v-33.792l-91.904 67.328 91.904 67.328v-33.792H588.8a97.024 97.024 0 0 0 91.904-102.4A97.024 97.024 0 0 0 588.8 243.456zM410.112 686.336m38.4 0l159.232 0q38.4 0 38.4-38.4l0 0q0-38.4-38.4-38.4l-159.232 0q-38.4 0-38.4 38.4l0 0q0 38.4 38.4 38.4Z"  horiz-adv-x="1024" />

    
    <glyph glyph-name="ziyuan2" unicode="&#58898;" d="M512 384m-512 0a512 512 0 1 1 1024 0 512 512 0 1 1-1024 0ZM671.744 595.456L352.6656 209.92l313.5488-314.2656a512.9216 512.9216 0 0 1 342.3232 363.008zM346.4192 602.3168m20.48 0l290.0992 0q20.48 0 20.48-20.48l0-356.864q0-20.48-20.48-20.48l-290.0992 0q-20.48 0-20.48 20.48l0 356.864q0 20.48 20.48 20.48ZM403.5584 639.3856m20.1728 0l0 0q20.1728 0 20.1728-20.1728l0-33.6896q0-20.1728-20.1728-20.1728l0 0q-20.1728 0-20.1728 20.1728l0 33.6896q0 20.1728 20.1728 20.1728ZM581.632 639.3856m20.1728 0l0 0q20.1728 0 20.1728-20.1728l0-33.6896q0-20.1728-20.1728-20.1728l0 0q-20.1728 0-20.1728 20.1728l0 33.6896q0 20.1728 20.1728 20.1728ZM403.3536 411.648m10.24 0l96.256 0q10.24 0 10.24-10.24l0 0q0-10.24-10.24-10.24l-96.256 0q-10.24 0-10.24 10.24l0 0q0 10.24 10.24 10.24ZM403.3536 345.2928m10.24 0l196.9152 0q10.24 0 10.24-10.24l0 0q0-10.24-10.24-10.24l-196.9152 0q-10.24 0-10.24 10.24l0 0q0 10.24 10.24 10.24ZM403.3536 279.04m10.24 0l196.9152 0q10.24 0 10.24-10.24l0 0q0-10.24-10.24-10.24l-196.9152 0q-10.24 0-10.24 10.24l0 0q0 10.24 10.24 10.24ZM419.2256 494.6944m-12.8 0a12.8 12.8 0 1 1 25.6 0 12.8 12.8 0 1 1-25.6 0ZM512 494.6944m-12.8 0a12.8 12.8 0 1 1 25.6 0 12.8 12.8 0 1 1-25.6 0ZM609.1776 494.6944m-12.8 0a12.8 12.8 0 1 1 25.6 0 12.8 12.8 0 1 1-25.6 0Z"  horiz-adv-x="1024" />

    
    <glyph glyph-name="ziyuan3" unicode="&#58899;" d="M512 384m-512 0a512 512 0 1 1 1024 0 512 512 0 1 1-1024 0ZM355.1232 162.4064l276.48-276.48A512.9216 512.9216 0 0 1 983.04 183.6032L569.6512 597.1968zM455.3728 481.0752l49.2544-49.3568 64 49.3568H455.3728zM512 539.648m-81.5104 0a81.5104 81.5104 0 1 1 163.0208 0 81.5104 81.5104 0 1 1-163.0208 0ZM684.544 225.5872c0-122.88-77.2096-54.8864-172.544-54.8864s-172.544-68.096-172.544 54.8864S416.768 448.3072 512 448.3072s172.544-99.7376 172.544-222.72zM510.2592 404.0704l-37.0688 7.5776v-49.8688l37.0688 20.8896v21.4016zM513.7408 404.0704l37.0688 7.5776v-49.8688l-37.0688 20.8896v21.4016zM476.9792 560.64m-13.6192 0a13.6192 13.6192 0 1 1 27.2384 0 13.6192 13.6192 0 1 1-27.2384 0ZM548.5568 560.64m-13.6192 0a13.6192 13.6192 0 1 1 27.2384 0 13.6192 13.6192 0 1 1-27.2384 0Z"  horiz-adv-x="1024" />

    
    <glyph glyph-name="ziyuan4" unicode="&#58900;" d="M512 384m-512 0a512 512 0 1 1 1024 0 512 512 0 1 1-1024 0ZM998.4 224.1536L518.4512 703.6928l-94.4128-584.4992L648.192-109.568a512.9216 512.9216 0 0 1 350.208 333.7216zM597.6064 117.76H428.9536a7.3728 7.3728 0 0 0-7.3728 7.9872L450.56 503.6032a7.3728 7.3728 0 0 1-1.9456 5.5296l-15.872 17.3056a7.3728 7.3728 0 0 0 5.4272 12.3904h149.7088a7.3728 7.3728 0 0 0 5.2224-12.5952l-16.896-17.1008a7.3728 7.3728 0 0 1-2.1504-5.8368l30.72-377.6512a7.3728 7.3728 0 0 0-7.168-7.8848zM457.1136 606.8224h110.08v-67.7888H457.1136zM509.7472 664.576l-58.368-49.4592c-3.584-3.072-1.1264-8.3968 3.8912-8.3968H569.344c4.9152 0 7.4752 5.2224 3.9936 8.2944l-55.808 49.5616a6.144 6.144 0 0 1-7.7824 0zM582.144 404.6848H442.6752l7.7824 102.0928h123.2896l8.3968-102.0928zM597.4016 117.76h-167.936a7.8848 7.8848 0 0 0-7.8848 8.4992l10.24 138.6496H593.92l11.0592-138.9568a7.5776 7.5776 0 0 0-7.5776-8.192zM421.5808 404.6848m7.2704 0l167.1168 0q7.2704 0 7.2704-7.2704l0-1.9456q0-7.2704-7.2704-7.2704l-167.1168 0q-7.2704 0-7.2704 7.2704l0 1.9456q0 7.2704 7.2704 7.2704ZM499.4048 483.0208m8.8064 0l8.4992 0q8.8064 0 8.8064-8.8064l0-29.5936q0-8.8064-8.8064-8.8064l-8.4992 0q-8.8064 0-8.8064 8.8064l0 29.5936q0 8.8064 8.8064 8.8064ZM500.224 351.9488m8.8064 0l8.4992 0q8.8064 0 8.8064-8.8064l0-29.5936q0-8.8064-8.8064-8.8064l-8.4992 0q-8.8064 0-8.8064 8.8064l0 29.5936q0 8.8064 8.8064 8.8064ZM500.224 214.9376m8.8064 0l8.4992 0q8.8064 0 8.8064-8.8064l0-29.5936q0-8.8064-8.8064-8.8064l-8.4992 0q-8.8064 0-8.8064 8.8064l0 29.5936q0 8.8064 8.8064 8.8064ZM476.9792 599.04m10.24 0l49.7664 0q10.24 0 10.24-10.24l0-31.8464q0-10.24-10.24-10.24l-49.7664 0q-10.24 0-10.24 10.24l0 31.8464q0 10.24 10.24 10.24ZM508.1088 703.6928h10.3424v-48.7424h-10.3424z"  horiz-adv-x="1024" />

    
    <glyph glyph-name="ziyuan5" unicode="&#58901;" d="M512 384m-512 0a512 512 0 1 1 1024 0 512 512 0 1 1-1024 0ZM486.4 711.68l111.8208-442.0608-315.392-51.8144 334.848-334.848A512.8192 512.8192 0 0 1 992.256 206.2336zM782.6432 263.4752L615.424 96.256 388.5056 323.1744l82.3296 252.1088 311.808-311.808zM269.824 276.1728a1262.7968 1262.7968 0 0 1 514.56 48.8448 6.144 6.144 0 0 0 6.0416-10.24L696.32 230.4a134.8608 134.8608 0 0 0-89.2928-34.4064l-266.752-1.4336A80.5888 80.5888 0 0 0 273.408 230.4l-16.5888 24.576a13.7216 13.7216 0 0 0 13.0048 21.1968zM486.2976 289.4848V711.68s187.2896-314.9824 149.2992-368.64c-18.5344-26.5216-77.5168-43.4176-149.2992-53.5552zM471.04 286.3104V575.3856S364.9536 410.112 376.0128 348.16c6.0416-33.792 41.5744-44.8512 95.0272-61.8496zM263.68 244.6336S523.4688 209.92 756.9408 284.672l-13.5168-12.1856s-157.696-63.488-472.9856-38.0928z"  horiz-adv-x="1024" />

    
    <glyph glyph-name="ziyuan6" unicode="&#58902;" d="M512 384m-512 0a512 512 0 1 1 1024 0 512 512 0 1 1-1024 0ZM514.7648 513.6384s-76.6976-209.1008-204.8-316.2112h430.08s-87.4496 56.0128-225.28 316.2112zM519.9872 433.8688s-20.48-126.1568-84.8896-225.28h163.84s-54.1696 79.2576-78.9504 225.28zM290.9184 208.896m5.7344 0l457.4208 0q5.7344 0 5.7344-5.7344l0 0q0-5.7344-5.7344-5.7344l-457.4208 0q-5.7344 0-5.7344 5.7344l0 0q0 5.7344 5.7344 5.7344ZM511.5904 611.6352h8.8064v-120.4224h-8.8064zM526.5408 599.9616l72.8064-31.0272-72.8064-26.624v57.6512z"  horiz-adv-x="1024" />

    
    <glyph glyph-name="ziyuan7" unicode="&#58903;" d="M512 384m-512 0a512 512 0 1 1 1024 0 512 512 0 1 1-1024 0ZM505.2416 599.04l-204.8-181.1456a10.24 10.24 0 0 1 6.7584-17.7152h409.6a10.24 10.24 0 0 1 6.7584 17.92L518.7584 599.04a10.24 10.24 0 0 1-13.5168 0zM357.5808 400.1792v-197.7344a10.24 10.24 0 0 1 10.24-10.24H460.8V300.3392a51.2 51.2 0 0 0 102.4 0v-108.1344h92.9792a10.24 10.24 0 0 1 10.24 10.24V400.1792z"  horiz-adv-x="1024" />

    
    <glyph glyph-name="ziyuan8" unicode="&#58904;" d="M512 384m-512 0a512 512 0 1 1 1024 0 512 512 0 1 1-1024 0ZM688.9472 431.8208H340.1728c-7.2704 0-12.6976 3.2768-11.264 6.656l39.7312 72.704c1.024 2.6624 5.7344 4.5056 11.264 4.5056h269.7216c5.4272 0 10.24-1.8432 11.264-4.5056l39.3216-72.6016c1.4336-3.3792-3.8912-6.7584-11.264-6.7584zM365.8752 431.8208m-37.1712 0a37.1712 37.1712 0 1 1 74.3424 0 37.1712 37.1712 0 1 1-74.3424 0ZM440.2176 431.8208m-37.1712 0a37.1712 37.1712 0 1 1 74.3424 0 37.1712 37.1712 0 1 1-74.3424 0ZM514.56 431.8208m-37.1712 0a37.1712 37.1712 0 1 1 74.3424 0 37.1712 37.1712 0 1 1-74.3424 0ZM588.9024 431.8208m-37.1712 0a37.1712 37.1712 0 1 1 74.3424 0 37.1712 37.1712 0 1 1-74.3424 0ZM663.2448 431.8208m-37.1712 0a37.1712 37.1712 0 1 1 74.3424 0 37.1712 37.1712 0 1 1-74.3424 0ZM668.7744 364.3392A37.7856 37.7856 0 0 0 634.88 383.0784h-6.8608a39.7312 39.7312 0 0 0-67.4816 0h-6.8608a39.7312 39.7312 0 0 0-67.4816 0h-6.8608a39.7312 39.7312 0 0 0-67.4816 0h-6.8608a37.7856 37.7856 0 0 0-33.6896-18.7392 41.984 41.984 0 0 0-15.0528 2.7648V181.248a8.9088 8.9088 0 0 1 9.5232-8.192h98.7136v38.2976A50.0736 50.0736 0 0 0 514.56 261.12a50.0736 50.0736 0 0 0 50.0736-50.0736v-37.9904h98.7136a8.9088 8.9088 0 0 1 9.5232 8.192V364.6464c-1.4336-0.1024-2.6624-0.3072-4.096-0.3072zM375.3984 554.496m9.5232 0l259.1744 0q9.5232 0 9.5232-9.5232l0 0.1024q0-9.5232-9.5232-9.5232l-259.1744 0q-9.5232 0-9.5232 9.5232l0-0.1024q0 9.5232 9.5232 9.5232Z"  horiz-adv-x="1024" />

    
    <glyph glyph-name="ziyuan9" unicode="&#58905;" d=""  horiz-adv-x="1024" />

    
    <glyph glyph-name="ziyuan10" unicode="&#58906;" d="M512 384m-512 0a512 512 0 1 1 1024 0 512 512 0 1 1-1024 0ZM512.512 421.888m-103.936 0a103.936 103.936 0 1 1 207.872 0 103.936 103.936 0 1 1-207.872 0ZM512 572.416a150.4256 150.4256 0 1 1 150.9376-150.528A150.4256 150.4256 0 0 1 512 572.416z m0-278.9376A128.4096 128.4096 0 1 0 640.9216 421.888 128.4096 128.4096 0 0 0 512 293.4784zM650.1376 334.5408a146.1248 146.1248 0 0 0-54.0672-54.0672l79.2576-105.5744L696.32 233.984l59.0848 21.2992-105.2672 79.2576zM373.8624 334.5408a146.1248 146.1248 0 0 1 54.0672-54.0672l-79.2576-105.5744L327.68 233.984l-59.392 21.2992 105.5744 79.2576zM499.4048 436.3264l12.9024 26.7264 13.312-26.4192 29.3888-3.9936-21.0944-20.8896 5.3248-29.184-26.3168 13.5168-26.2144-14.0288 4.8128 29.2864-21.4016 20.48 29.2864 4.5056z"  horiz-adv-x="1024" />

    
    <glyph glyph-name="ziyuan11" unicode="&#58907;" d="M512 384m-512 0a512 512 0 1 1 1024 0 512 512 0 1 1-1024 0ZM337.6128 396.6976h368.0256V251.904H337.6128zM705.6384 396.6976H337.92s28.9792 134.0416 43.9296 146.8416C419.84 576.2048 634.88 573.44 664.8832 539.0336c16.896-19.1488 40.7552-142.336 40.7552-142.336zM337.6128 301.056m10.24 0l40.96 0q10.24 0 10.24-10.24l0-77.824q0-10.24-10.24-10.24l-40.96 0q-10.24 0-10.24 10.24l0 77.824q0 10.24 10.24 10.24ZM644.1984 301.056m10.24 0l40.96 0q10.24 0 10.24-10.24l0-77.824q0-10.24-10.24-10.24l-40.96 0q-10.24 0-10.24 10.24l0 77.824q0 10.24 10.24 10.24ZM675.84 385.6384a1344.8192 1344.8192 0 0 0-154.4192-10.24 1344.8192 1344.8192 0 0 0-154.4192 10.24l23.6544 116.8384h261.7344zM622.3872 329.8304c-2.3552-19.0464 53.0432-12.5952 66.048-2.1504s10.8544 39.2192-6.0416 38.1952-57.7536-18.6368-60.0064-36.0448zM423.0144 329.8304c2.3552-19.0464-53.0432-12.5952-66.048-2.1504s-10.8544 39.2192 6.0416 38.1952 57.7536-18.6368 60.0064-36.0448zM341.504 414.0032s-23.4496 6.656-27.9552 1.7408-13.824-19.5584-12.5952-23.7568 36.9664-16.384 36.9664-16.384zM702.1568 414.0032s23.4496 6.656 27.9552 1.7408 13.824-19.5584 12.5952-23.7568-36.5568-16.384-36.5568-16.384z"  horiz-adv-x="1024" />

    
    <glyph glyph-name="ziyuan12" unicode="&#58908;" d="M512 384m-512 0a512 512 0 1 1 1024 0 512 512 0 1 1-1024 0ZM515.4816 522.8544m-94.6176 0a94.6176 94.6176 0 1 1 189.2352 0 94.6176 94.6176 0 1 1-189.2352 0ZM682.2912 228.6592a206.5408 206.5408 0 0 0-4.096-40.96H351.744a279.1424 279.1424 0 0 0-2.9696 40.96c0 88.6784 55.808 162.816 130.4576 181.248a151.04 151.04 0 0 0 36.2496 4.8128c92.16 0 166.8096-83.456 166.8096-186.0608zM513.2288 375.6032l-12.9024-37.4784 15.1552-111.5136 14.2336 111.5136-10.752 37.4784 37.888 32.6656a118.4768 118.4768 0 0 1-77.7216 1.4336z"  horiz-adv-x="1024" />

    


  </font>
</defs>
</svg>
